<?xml version="1.0" encoding="UTF-8"?>
<svg xmlns="http://www.w3.org/2000/svg" width="1024" height="1024" viewBox="0 0 100 100" fill="none" role="img" aria-labelledby="title description">
<title id="title">1 Corinthians — Broken Chain and Heart</title>
<desc id="description">Freedom in Christ breaks spiritual bondage, while love remains the highest calling of Christian life.</desc>
<metadata>Daily Grace. Grace for Today. Our Faith Tomorrow.</metadata>
<g transform="translate(-2.021403 -9.252378) scale(1.040428)"><g id="symbol" transform="translate(5 5) scale(.9)"><g transform="translate(50 44) scale(1.17)"><path d="M0 27C-12 17-30 5-29-10C-28-28-8-30 0-16C8-30 28-28 29-10C30 5 12 17 0 27Z" fill="#E56D48"/></g><g transform="translate(50 79) scale(1.23)"><g transform="rotate(-25)"><rect x="-32" y="-8" width="26" height="16" rx="8" fill="none"/><rect x="-32" y="-8" width="26" height="16" rx="8" fill="none" stroke="#688B9E" stroke-width="5"/></g><g transform="scale(-1 1)"><g transform="rotate(-25)"><rect x="-32" y="-8" width="26" height="16" rx="8" fill="none"/><rect x="-32" y="-8" width="26" height="16" rx="8" fill="none" stroke="#688B9E" stroke-width="5"/></g></g><path d="M-4-12L-1-18M4 12L1 18" fill="none" stroke="#EAB84F" stroke-width="3" stroke-linecap="round" stroke-linejoin="round"/></g><path d="M17 11Q18 14 21 15Q18 16 17 19Q16 16 13 15Q16 14 17 11Z" fill="#EAB84F"/><path d="M83 11Q84 14 87 15Q84 16 83 19Q82 16 79 15Q82 14 83 11Z" fill="#EAB84F"/></g>
</g></svg>