<?xml version="1.0" encoding="UTF-8"?>
<svg xmlns="http://www.w3.org/2000/svg" width="1024" height="1024" viewBox="0 0 100 100" fill="none" role="img" aria-labelledby="title description">
<title id="title">2 John — Scroll of Truth</title>
<desc id="description">Faithfulness to Christ's teaching preserves truth, guiding believers to walk in love without embracing deception.</desc>
<metadata>Daily Grace. Grace for Today. Our Faith Tomorrow.</metadata>
<g transform="translate(-0.172018 2.537271) scale(1.003440)"><g id="symbol" transform="translate(5 5) scale(.9)"><g transform="translate(50 51) scale(1.17)"><rect x="-31" y="-25" width="62" height="49" rx="3" fill="#F4E6BD"/><path d="M-31-25C-44-25-44-12-35-12H-29V-25M31 24C44 24 44 11 35 11H29V24Z" fill="#DBC18B"/><path d="M-20-10H20M-20 0H20M-20 10H7" fill="none" stroke="#B98232" stroke-width="2" stroke-linecap="round" stroke-linejoin="round"/></g><path d="M43 66L37 91L50 85L63 91L57 66Z" fill="#168666"/><circle cx="50" cy="67" r="12" fill="#EAB84F"/><path d="M50 60Q51 66 57 67Q51 68 50 74Q49 68 43 67Q49 66 50 60Z" fill="#F4E6BD"/><path d="M50 3Q51 8 56 9Q51 10 50 15Q49 10 44 9Q49 8 50 3Z" fill="#EAB84F"/></g>
</g></svg>