<?xml version="1.0" encoding="UTF-8"?>
<svg xmlns="http://www.w3.org/2000/svg" width="1024" height="1024" viewBox="0 0 100 100" fill="none" role="img" aria-labelledby="title description">
<title id="title">2 Peter — Lighthouse and Dawn Star</title>
<desc id="description">God's truth shines through spiritual darkness, guiding believers safely and exposing the dangers of deception.</desc>
<metadata>Daily Grace. Grace for Today. Our Faith Tomorrow.</metadata>
<g transform="translate(-3.418803 -2.938034) scale(1.068376)"><g id="symbol" transform="translate(5 5) scale(.9)"><path d="M43 31L6 15V45Z" fill="#EAB84F"/><path d="M57 31L94 15V45Z" fill="#EAB84F"/><g transform="translate(50 54) scale(0.9)"><path d="M-24 33L-17-19H17L24 33Z" fill="#F4E6BD"/><path d="M-21-19H21V-33H-21ZM-27-33L0-46L27-33Z" fill="#B98232"/><rect x="-14" y="-28" width="28" height="7" rx="0" fill="#EAB84F"/><rect x="-28" y="33" width="56" height="7" rx="2" fill="#B98232"/><rect x="-6" y="16" width="12" height="17" rx="5" fill="#187DA7"/></g><path d="M9 95L29 85L50 90L70 85L91 95Z" fill="#688B9E"/><path d="M83 4Q84 8 88 9Q84 10 83 14Q82 10 78 9Q82 8 83 4Z" fill="#EAB84F"/></g>
</g></svg>