<?xml version="1.0" encoding="UTF-8"?>
<svg xmlns="http://www.w3.org/2000/svg" width="1024" height="1024" viewBox="0 0 100 100" fill="none" role="img" aria-labelledby="title description">
<title id="title">Esther — Golden Scepter</title>
<desc id="description">Divine providence works through courage and royal favor to protect God's people from threatened destruction.</desc>
<metadata>Daily Grace. Grace for Today. Our Faith Tomorrow.</metadata>
<g transform="translate(-15.690691 -14.836712) scale(1.313814)"><g id="symbol" transform="translate(5 5) scale(.9)"><g transform="rotate(33 50 50)"><path d="M50 31V88" fill="none" stroke="#B98232" stroke-width="7" stroke-linecap="round" stroke-linejoin="round"/><path d="M50 34V80" fill="none" stroke="#EAB84F" stroke-width="3" stroke-linecap="round" stroke-linejoin="round"/><path d="M34 21L43 10H57L66 21L50 36Z" fill="#EAB84F"/><path d="M43 12H57L60 21L50 29L40 21Z" fill="#168666"/><rect x="42" y="83" width="16" height="6" rx="3" fill="#EAB84F"/></g><path d="M18 26Q19 30 23 31Q19 32 18 36Q17 32 13 31Q17 30 18 26Z" fill="#EAB84F"/><path d="M82 64Q83 68 87 69Q83 70 82 74Q81 70 77 69Q81 68 82 64Z" fill="#EAB84F"/></g>
</g></svg>