<?xml version="1.0" encoding="UTF-8"?>
<svg xmlns="http://www.w3.org/2000/svg" width="1024" height="1024" viewBox="0 0 100 100" fill="none" role="img" aria-labelledby="title description">
<title id="title">Ezekiel — Wheels Within Wheels</title>
<desc id="description">Interlocking heavenly wheels reveal God's encompassing presence and sovereign movement beyond human boundaries and understanding.</desc>
<metadata>Daily Grace. Grace for Today. Our Faith Tomorrow.</metadata>
<g transform="translate(-7.414698 -7.414698) scale(1.148294)"><g id="symbol" transform="translate(5 5) scale(.9)"><circle cx="50" cy="50" r="36" fill="none" stroke="#EAB84F" stroke-width="6"/><g transform="rotate(38 50 50)"><ellipse cx="50" cy="50" rx="16" ry="40" fill="none" stroke="#187DA7" stroke-width="6"/></g><g transform="rotate(-38 50 50)"><ellipse cx="50" cy="50" rx="16" ry="40" fill="none" stroke="#168666" stroke-width="6"/></g><g transform="translate(50 14) scale(0.18)"><path d="M-35 0Q0-32 35 0Q0 32-35 0Z" fill="#F4E6BD"/><circle cx="0" cy="0" r="12" fill="#187DA7"/><circle cx="0" cy="0" r="5" fill="#31596A"/></g><g transform="translate(76 24) scale(0.18)"><path d="M-35 0Q0-32 35 0Q0 32-35 0Z" fill="#F4E6BD"/><circle cx="0" cy="0" r="12" fill="#187DA7"/><circle cx="0" cy="0" r="5" fill="#31596A"/></g><g transform="translate(86 50) scale(0.18)"><path d="M-35 0Q0-32 35 0Q0 32-35 0Z" fill="#F4E6BD"/><circle cx="0" cy="0" r="12" fill="#187DA7"/><circle cx="0" cy="0" r="5" fill="#31596A"/></g><g transform="translate(76 76) scale(0.18)"><path d="M-35 0Q0-32 35 0Q0 32-35 0Z" fill="#F4E6BD"/><circle cx="0" cy="0" r="12" fill="#187DA7"/><circle cx="0" cy="0" r="5" fill="#31596A"/></g><g transform="translate(50 86) scale(0.18)"><path d="M-35 0Q0-32 35 0Q0 32-35 0Z" fill="#F4E6BD"/><circle cx="0" cy="0" r="12" fill="#187DA7"/><circle cx="0" cy="0" r="5" fill="#31596A"/></g><g transform="translate(24 76) scale(0.18)"><path d="M-35 0Q0-32 35 0Q0 32-35 0Z" fill="#F4E6BD"/><circle cx="0" cy="0" r="12" fill="#187DA7"/><circle cx="0" cy="0" r="5" fill="#31596A"/></g><g transform="translate(14 50) scale(0.18)"><path d="M-35 0Q0-32 35 0Q0 32-35 0Z" fill="#F4E6BD"/><circle cx="0" cy="0" r="12" fill="#187DA7"/><circle cx="0" cy="0" r="5" fill="#31596A"/></g><g transform="translate(24 24) scale(0.18)"><path d="M-35 0Q0-32 35 0Q0 32-35 0Z" fill="#F4E6BD"/><circle cx="0" cy="0" r="12" fill="#187DA7"/><circle cx="0" cy="0" r="5" fill="#31596A"/></g><path d="M50 41Q51 49 59 50Q51 51 50 59Q49 51 41 50Q49 49 50 41Z" fill="#EAB84F"/></g>
</g></svg>