<?xml version="1.0" encoding="UTF-8"?>
<svg xmlns="http://www.w3.org/2000/svg" width="1024" height="1024" viewBox="0 0 100 100" fill="none" role="img" aria-labelledby="title description">
<title id="title">Galatians — Broken Yoke of Slavery</title>
<desc id="description">Christ breaks the yoke of legalism, bringing true liberty through faith and freedom in grace.</desc>
<metadata>Daily Grace. Grace for Today. Our Faith Tomorrow.</metadata>
<g transform="translate(-4.962312 -8.150126) scale(1.099246)"><g id="symbol" transform="translate(5 5) scale(.9)"><path d="M8 26Q25 18 43 31L36 43L46 54L32 64Q23 48 8 49ZM92 26Q75 18 57 31L64 43L54 54L68 64Q77 48 92 49Z" fill="#B98232"/><path d="M16 45V62Q23 84 35 64M84 45V62Q77 84 65 64" fill="none" stroke="#EAB84F" stroke-width="5" stroke-linecap="round" stroke-linejoin="round"/><g transform="translate(50 84) scale(0.65)"><g transform="rotate(-25)"><rect x="-32" y="-8" width="26" height="16" rx="8" fill="none"/><rect x="-32" y="-8" width="26" height="16" rx="8" fill="none" stroke="#688B9E" stroke-width="5"/></g><g transform="scale(-1 1)"><g transform="rotate(-25)"><rect x="-32" y="-8" width="26" height="16" rx="8" fill="none"/><rect x="-32" y="-8" width="26" height="16" rx="8" fill="none" stroke="#688B9E" stroke-width="5"/></g></g><path d="M-4-12L-1-18M4 12L1 18" fill="none" stroke="#EAB84F" stroke-width="3" stroke-linecap="round" stroke-linejoin="round"/></g><path d="M47 29L43 16L50 21L56 9L55 30ZM46 61L40 75L50 68L58 77L55 59Z" fill="#EAB84F"/></g>
</g></svg>