<?xml version="1.0" encoding="UTF-8"?>
<svg xmlns="http://www.w3.org/2000/svg" width="1024" height="1024" viewBox="0 0 100 100" fill="none" role="img" aria-labelledby="title description">
<title id="title">Habakkuk — Watchtower at Sunrise — חבקוק</title>
<desc id="description">A watchman awaits the dawn, embodying patient faith and steadfast trust while seeking God's response.</desc>
<metadata>Daily Grace. Grace for Today. Our Faith Tomorrow.</metadata>
<g transform="translate(-4.114465 -2.270786) scale(0.996583)"><g id="symbol" transform="translate(5 5) scale(.9)"><circle cx="74" cy="37" r="15" fill="#EAB84F"/><g transform="rotate(0 74 37)"><path d="M74 15V9" fill="none" stroke="#EAB84F" stroke-width="3" stroke-linecap="round" stroke-linejoin="round"/></g><g transform="rotate(45 74 37)"><path d="M74 15V9" fill="none" stroke="#EAB84F" stroke-width="3" stroke-linecap="round" stroke-linejoin="round"/></g><g transform="rotate(90 74 37)"><path d="M74 15V9" fill="none" stroke="#EAB84F" stroke-width="3" stroke-linecap="round" stroke-linejoin="round"/></g><g transform="rotate(135 74 37)"><path d="M74 15V9" fill="none" stroke="#EAB84F" stroke-width="3" stroke-linecap="round" stroke-linejoin="round"/></g><g transform="rotate(180 74 37)"><path d="M74 15V9" fill="none" stroke="#EAB84F" stroke-width="3" stroke-linecap="round" stroke-linejoin="round"/></g><g transform="rotate(225 74 37)"><path d="M74 15V9" fill="none" stroke="#EAB84F" stroke-width="3" stroke-linecap="round" stroke-linejoin="round"/></g><g transform="rotate(270 74 37)"><path d="M74 15V9" fill="none" stroke="#EAB84F" stroke-width="3" stroke-linecap="round" stroke-linejoin="round"/></g><g transform="rotate(315 74 37)"><path d="M74 15V9" fill="none" stroke="#EAB84F" stroke-width="3" stroke-linecap="round" stroke-linejoin="round"/></g><g transform="translate(42 58) scale(1)"><path d="M-24 33L-17-19H17L24 33Z" fill="#F4E6BD"/><path d="M-21-19H21V-33H-21ZM-27-33L0-46L27-33Z" fill="#B98232"/><rect x="-14" y="-28" width="28" height="7" rx="0" fill="#EAB84F"/><rect x="-28" y="33" width="56" height="7" rx="2" fill="#B98232"/><rect x="-6" y="16" width="12" height="17" rx="5" fill="#187DA7"/></g><circle cx="42" cy="26" r="3" fill="#31596A"/><rect x="39" y="28" width="6" height="9" rx="2" fill="#31596A"/><path d="M6 94L25 83H76L94 94Z" fill="#168666"/></g>
</g></svg>