<?xml version="1.0" encoding="UTF-8"?>
<svg xmlns="http://www.w3.org/2000/svg" width="1024" height="1024" viewBox="0 0 100 100" fill="none" role="img" aria-labelledby="title description">
<title id="title">Joel — Locust Swarm — יואל</title>
<desc id="description">Devastating locusts warn of coming judgment and the Lord's day, urging repentance and spiritual awakening.</desc>
<metadata>Daily Grace. Grace for Today. Our Faith Tomorrow.</metadata>
<g transform="translate(-4.166667 -1.864035) scale(1.096491)"><g id="symbol" transform="translate(5 5) scale(.9)"><circle cx="50" cy="47" r="32" fill="#B98232"/><circle cx="50" cy="47" r="25" fill="#EAB84F"/><g transform="translate(24 17) scale(1)"><ellipse cx="0" cy="0" rx="8" ry="3" fill="#168666"/><ellipse cx="-2" cy="-4" rx="7" ry="3" fill="#45AC70"/><circle cx="7" cy="-1" r="3" fill="#168666"/><path d="M-4 2L-9 8M1 2L4 8M8-3L12-8" fill="none" stroke="#B98232" stroke-width="1.8" stroke-linecap="round" stroke-linejoin="round"/></g><g transform="translate(61 12) scale(0.8)"><ellipse cx="0" cy="0" rx="8" ry="3" fill="#168666"/><ellipse cx="-2" cy="-4" rx="7" ry="3" fill="#45AC70"/><circle cx="7" cy="-1" r="3" fill="#168666"/><path d="M-4 2L-9 8M1 2L4 8M8-3L12-8" fill="none" stroke="#B98232" stroke-width="1.8" stroke-linecap="round" stroke-linejoin="round"/></g><g transform="translate(82 28) scale(0.9)"><ellipse cx="0" cy="0" rx="8" ry="3" fill="#168666"/><ellipse cx="-2" cy="-4" rx="7" ry="3" fill="#45AC70"/><circle cx="7" cy="-1" r="3" fill="#168666"/><path d="M-4 2L-9 8M1 2L4 8M8-3L12-8" fill="none" stroke="#B98232" stroke-width="1.8" stroke-linecap="round" stroke-linejoin="round"/></g><g transform="translate(44 35) scale(1.1)"><ellipse cx="0" cy="0" rx="8" ry="3" fill="#168666"/><ellipse cx="-2" cy="-4" rx="7" ry="3" fill="#45AC70"/><circle cx="7" cy="-1" r="3" fill="#168666"/><path d="M-4 2L-9 8M1 2L4 8M8-3L12-8" fill="none" stroke="#B98232" stroke-width="1.8" stroke-linecap="round" stroke-linejoin="round"/></g><g transform="translate(19 49) scale(0.9)"><ellipse cx="0" cy="0" rx="8" ry="3" fill="#168666"/><ellipse cx="-2" cy="-4" rx="7" ry="3" fill="#45AC70"/><circle cx="7" cy="-1" r="3" fill="#168666"/><path d="M-4 2L-9 8M1 2L4 8M8-3L12-8" fill="none" stroke="#B98232" stroke-width="1.8" stroke-linecap="round" stroke-linejoin="round"/></g><g transform="translate(71 54) scale(1.1)"><ellipse cx="0" cy="0" rx="8" ry="3" fill="#168666"/><ellipse cx="-2" cy="-4" rx="7" ry="3" fill="#45AC70"/><circle cx="7" cy="-1" r="3" fill="#168666"/><path d="M-4 2L-9 8M1 2L4 8M8-3L12-8" fill="none" stroke="#B98232" stroke-width="1.8" stroke-linecap="round" stroke-linejoin="round"/></g><g transform="translate(37 70) scale(1)"><ellipse cx="0" cy="0" rx="8" ry="3" fill="#168666"/><ellipse cx="-2" cy="-4" rx="7" ry="3" fill="#45AC70"/><circle cx="7" cy="-1" r="3" fill="#168666"/><path d="M-4 2L-9 8M1 2L4 8M8-3L12-8" fill="none" stroke="#B98232" stroke-width="1.8" stroke-linecap="round" stroke-linejoin="round"/></g><g transform="translate(77 82) scale(0.8)"><ellipse cx="0" cy="0" rx="8" ry="3" fill="#168666"/><ellipse cx="-2" cy="-4" rx="7" ry="3" fill="#45AC70"/><circle cx="7" cy="-1" r="3" fill="#168666"/><path d="M-4 2L-9 8M1 2L4 8M8-3L12-8" fill="none" stroke="#B98232" stroke-width="1.8" stroke-linecap="round" stroke-linejoin="round"/></g><g transform="translate(13 82) scale(0.8)"><ellipse cx="0" cy="0" rx="8" ry="3" fill="#168666"/><ellipse cx="-2" cy="-4" rx="7" ry="3" fill="#45AC70"/><circle cx="7" cy="-1" r="3" fill="#168666"/><path d="M-4 2L-9 8M1 2L4 8M8-3L12-8" fill="none" stroke="#B98232" stroke-width="1.8" stroke-linecap="round" stroke-linejoin="round"/></g></g>
</g></svg>