<?xml version="1.0" encoding="UTF-8"?>
<svg xmlns="http://www.w3.org/2000/svg" width="1024" height="1024" viewBox="0 0 100 100" fill="none" role="img" aria-labelledby="title description">
<title id="title">Leviticus — Altar of Incense — ויקרא</title>
<desc id="description">God calls His people to holiness through purity, worship, sacrifice, and faithful priestly mediation.</desc>
<metadata>Daily Grace. Grace for Today. Our Faith Tomorrow.</metadata>
<g transform="translate(1.334816 -3.385706) scale(0.973304)"><g id="symbol" transform="translate(5 5) scale(.9)"><g transform="translate(50 65) scale(1.15)"><path d="M-31-14H31V-23H23V-18H-23V-23H-31ZM-25-10H25V17H-25ZM-31 20H31V27H-31Z" fill="#B98232"/><rect x="-18" y="-7" width="36" height="19" rx="2" fill="#EAB84F"/><rect x="-23" y="27" width="8" height="8" rx="0" fill="#B98232"/><rect x="15" y="27" width="8" height="8" rx="0" fill="#B98232"/></g><path d="M42 43C28 31 60 30 43 13M56 41C71 29 44 22 59 8" fill="none" stroke="#5BBDAC" stroke-width="5" stroke-linecap="round" stroke-linejoin="round"/><path d="M21 22Q22 25 25 26Q22 27 21 30Q20 27 17 26Q20 25 21 22Z" fill="#EAB84F"/><path d="M80 22Q81 25 84 26Q81 27 80 30Q79 27 76 26Q79 25 80 22Z" fill="#EAB84F"/></g>
</g></svg>