<?xml version="1.0" encoding="UTF-8"?>
<svg xmlns="http://www.w3.org/2000/svg" width="1024" height="1024" viewBox="0 0 100 100" fill="none" role="img" aria-labelledby="title description">
<title id="title">Proverbs — Glowing Lamp</title>
<desc id="description">Divine wisdom illuminates life's decisions, guiding people toward understanding, integrity, and faithful daily living.</desc>
<metadata>Daily Grace. Grace for Today. Our Faith Tomorrow.</metadata>
<g transform="translate(5.584962 4.492400) scale(0.950054)"><g id="symbol" transform="translate(5 5) scale(.9)"><g transform="translate(43 62) scale(1.1)"><path d="M-29-6H25L39-17L32 6L21 10C18 28-22 28-27 10Z" fill="#B98232"/><path d="M-28-3C-46-15-45 16-26 10" fill="none" stroke="#EAB84F" stroke-width="5" stroke-linecap="round" stroke-linejoin="round"/><ellipse cx="-1" cy="-5" rx="25" ry="6" fill="#EAB84F"/><g transform="translate(29 -27) scale(0.45)"><path d="M0 34C-26 23-29 4-14-12C-17 1-11 5-9 8C-8-8 7-17 3-33C29-13 37 13 17 29C10 34 4 36 0 34Z" fill="#E56D48"/><path d="M0 29C-15 18-13 8-5-3C-5 7 1 10 4 12C8 5 9 0 8-6C23 9 21 27 0 29Z" fill="#EAB84F"/></g></g><path d="M66 17V9M82 24L89 17M87 39H96" fill="none" stroke="#EAB84F" stroke-width="3" stroke-linecap="round" stroke-linejoin="round"/><path d="M18 27Q19 31 23 32Q19 33 18 37Q17 33 13 32Q17 31 18 27Z" fill="#EAB84F"/></g>
</g></svg>